<svg width="64" height="64" viewBox="0 0 64 64" fill="none" xmlns="http://www.w3.org/2000/svg">
<path d="M62.8574 12.5714H1.14307V56C1.14307 59.8 4.20021 62.8571 8.00021 62.8571H56.0002C56.6574 62.8571 57.2859 62.7714 57.8574 62.6C57.8288 62.5714 57.7716 62.5428 57.7431 62.5143L52.4574 57.2286C51.9145 56.6857 51.0288 56.7714 50.6288 57.4L48.2288 61.0286C47.6574 61.9143 46.3145 61.6571 46.0859 60.6286L42.3431 43.7428C42.1431 42.8857 42.9145 42.1428 43.7716 42.3143L60.6574 46.0571C61.6859 46.2857 61.9431 47.6286 61.0574 48.2L57.4288 50.6C56.8002 51.0286 56.7145 51.9143 57.2574 52.4286L62.5431 57.7143C62.5716 57.7428 62.6002 57.8 62.6288 57.8285C62.8002 57.2285 62.8859 56.6 62.8859 55.9714V12.5714H62.8574ZM25.9145 44.5714H12.9431C11.4002 44.5714 10.1716 43.2857 10.2859 41.7714L11.4859 27.4857C11.5431 26.8 12.1145 26.2857 12.8002 26.2857H26.0574C26.7431 26.2857 27.3145 26.8 27.3716 27.4857L28.5716 41.7714C28.6859 43.2857 27.4574 44.5714 25.9145 44.5714Z" fill="#3460B4"/>
<path d="M57.8574 62.5999C58.3146 62.9713 59.0003 62.9428 59.4289 62.5142L62.5146 59.4285C62.9431 58.9999 62.9717 58.3428 62.6003 57.8571C61.9431 60.1428 60.1431 61.9428 57.8574 62.5999Z" fill="#3460B4"/>
<path d="M59.4286 62.5143L62.5144 59.4286C62.9715 58.9714 62.9715 58.2 62.5144 57.7428L57.2286 52.4571C56.6858 51.9143 56.7715 51.0286 57.4001 50.6286L61.0286 48.2286C61.9144 47.6571 61.6572 46.3143 60.6286 46.0857L43.7429 42.3428C42.8858 42.1428 42.1429 42.9143 42.3144 43.7714L46.0572 60.6571C46.2858 61.6857 47.6286 61.9428 48.2001 61.0571L50.6001 57.4286C51.0286 56.8 51.9144 56.7143 52.4286 57.2571L57.7144 62.5428C58.2001 62.9714 58.9715 62.9714 59.4286 62.5143Z" stroke="#22262D" stroke-width="2" stroke-miterlimit="10" stroke-linecap="round" stroke-linejoin="round"/>
<path d="M35.4287 44.5714H37.7144" stroke="#22262D" stroke-width="2" stroke-miterlimit="10" stroke-linecap="round" stroke-linejoin="round"/>
<path d="M35.4287 37.7142H53.7144" stroke="#22262D" stroke-width="2" stroke-miterlimit="10" stroke-linecap="round" stroke-linejoin="round"/>
<path d="M35.4287 30.8571H53.7144" stroke="#22262D" stroke-width="2" stroke-miterlimit="10" stroke-linecap="round" stroke-linejoin="round"/>
<path d="M35.4287 21.7142H44.5716" stroke="#22262D" stroke-width="2" stroke-miterlimit="10" stroke-linecap="round" stroke-linejoin="round"/>
<path d="M37.7144 56H40.0001" stroke="#22262D" stroke-width="2" stroke-miterlimit="10" stroke-linecap="round" stroke-linejoin="round"/>
<path d="M30.8574 56H33.1431" stroke="#22262D" stroke-width="2" stroke-miterlimit="10" stroke-linecap="round" stroke-linejoin="round"/>
<path d="M24 56H26.2857" stroke="#22262D" stroke-width="2" stroke-miterlimit="10" stroke-linecap="round" stroke-linejoin="round"/>
<path d="M25.9143 44.5714H12.9428C11.4 44.5714 10.1714 43.2856 10.2857 41.7714L11.4857 27.4856C11.5428 26.7999 12.1143 26.2856 12.8 26.2856H26.0571C26.7428 26.2856 27.3143 26.7999 27.3714 27.4856L28.5714 41.7714C28.6857 43.2856 27.4571 44.5714 25.9143 44.5714Z" stroke="#22262D" stroke-width="2" stroke-miterlimit="10" stroke-linecap="round" stroke-linejoin="round"/>
<path d="M16 30.8571V24.3142C16 22.8857 17.0286 21.7142 18.2857 21.7142H20.5714C21.8286 21.7142 22.8571 22.8857 22.8571 24.3142V30.8571" stroke="#22262D" stroke-width="2" stroke-miterlimit="10" stroke-linecap="round" stroke-linejoin="round"/>
<path d="M21.7144 6.85718H24.0001" stroke="#22262D" stroke-width="2" stroke-miterlimit="10" stroke-linecap="round" stroke-linejoin="round"/>
<path d="M14.8574 6.85706H17.1431" stroke="#22262D" stroke-width="2" stroke-miterlimit="10" stroke-linecap="round" stroke-linejoin="round"/>
<path d="M8 6.85718H10.2857" stroke="#22262D" stroke-width="2" stroke-miterlimit="10" stroke-linecap="round" stroke-linejoin="round"/>
<path d="M62.8574 12.5714H1.14307V7.99996C1.14307 4.19996 4.20021 1.14282 8.00021 1.14282H56.0002C59.8002 1.14282 62.8574 4.19996 62.8574 7.99996V12.5714Z" stroke="#22262D" stroke-width="2" stroke-miterlimit="10" stroke-linecap="round" stroke-linejoin="round"/>
</svg>
