<svg width="20" height="20" viewBox="0 0 20 20" fill="none" xmlns="http://www.w3.org/2000/svg">
<path fill-rule="evenodd" clip-rule="evenodd" d="M3 11C3.55228 11 4 11.4133 4 11.9231V18.0769C4 18.5867 3.55228 19 3 19C2.44772 19 2 18.5867 2 18.0769V11.9231C2 11.4133 2.44772 11 3 11Z" fill="#3460B4"/>
<path fill-rule="evenodd" clip-rule="evenodd" d="M8 9C8.55228 9 9 9.43327 9 9.96774V18.0323C9 18.5667 8.55228 19 8 19C7.44772 19 7 18.5667 7 18.0323V9.96774C7 9.43327 7.44772 9 8 9Z" fill="#3460B4"/>
<path fill-rule="evenodd" clip-rule="evenodd" d="M13 6C13.5523 6 14 6.42588 14 6.95122V18.0488C14 18.5741 13.5523 19 13 19C12.4477 19 12 18.5741 12 18.0488V6.95122C12 6.42588 12.4477 6 13 6Z" fill="#3460B4"/>
<path fill-rule="evenodd" clip-rule="evenodd" d="M18 1C18.5523 1 19 1.43173 19 1.96429L19 18.0357C19 18.5683 18.5523 19 18 19C17.4477 19 17 18.5683 17 18.0357L17 1.96429C17 1.43173 17.4477 1 18 1Z" fill="#3460B4"/>
</svg>
