<svg width="16" height="16" viewBox="0 0 16 16" fill="none" xmlns="http://www.w3.org/2000/svg">
<path d="M15.9881 3.44673C15.9881 3.42845 16.0007 3.41065 15.9998 3.39258L11.1172 8.09727L15.994 12.6517C15.9969 12.6191 15.9881 12.5863 15.9881 12.5531V3.44673Z" fill="#3460B4"/>
<path d="M10.3717 8.82129L8.3785 10.739C8.27764 10.8361 8.14737 10.8847 8.01703 10.8847C7.8894 10.8847 7.76178 10.8382 7.66161 10.7448L5.67379 8.89247L0.765137 13.6239C0.884492 13.6668 1.01261 13.7 1.14677 13.7H14.8874C15.0866 13.7 15.2734 13.6394 15.4359 13.5489L10.3717 8.82129Z" fill="#3460B4"/>
<path d="M8.01169 9.64547L15.4633 2.4674C15.2946 2.36709 15.0982 2.2998 14.8877 2.2998H1.14713C0.873035 2.2998 0.621881 2.40623 0.42627 2.56855L8.01169 9.64547Z" fill="#3460B4"/>
<path d="M0 3.62158V12.553C0 12.6555 0.0235652 12.7544 0.0491463 12.8489L4.8969 8.18058L0 3.62158Z" fill="#3460B4"/>
</svg>
