<svg width="24" height="24" viewBox="0 0 24 24" fill="none" xmlns="http://www.w3.org/2000/svg">
<path d="M19.5493 13.9082L18.8646 13.1794L19.5493 13.9082ZM19.7885 6.52734L18.9984 7.14034L19.7885 6.52734ZM4.21154 6.52735L3.42146 5.91435L4.21154 6.52735ZM4.45067 13.9082L3.766 14.6371L4.45067 13.9082ZM11.4033 20.4395L12.088 19.7106L11.4033 20.4395ZM11.9037 20.8046L11.7111 21.7859L11.9037 20.8046ZM12.0963 20.8046L12.2889 21.7859L12.0963 20.8046ZM12.088 19.7106L5.13535 13.1794L3.766 14.6371L10.7186 21.1683L12.088 19.7106ZM4.69227 7.53907L5.00163 7.14034L3.42146 5.91435L3.1121 6.31307L4.69227 7.53907ZM18.9984 7.14034L19.3077 7.53906L20.8879 6.31307L20.5785 5.91434L18.9984 7.14034ZM18.8646 13.1794L11.912 19.7106L13.2814 21.1683L20.234 14.6371L18.8646 13.1794ZM19.3077 7.53906C20.6368 9.25207 20.4449 11.6949 18.8646 13.1794L20.234 14.6371C22.5661 12.4463 22.8493 8.84113 20.8879 6.31307L19.3077 7.53906ZM13.3891 7.74438C14.4515 5.51842 17.4864 5.1916 18.9984 7.14034L20.5785 5.91434C18.1541 2.78956 13.2877 3.31361 11.5842 6.88292L13.3891 7.74438ZM10.6109 7.74438C11.1685 8.91272 12.8315 8.91272 13.3891 7.74438L11.5842 6.88292C11.7511 6.5332 12.2489 6.5332 12.4158 6.88292L10.6109 7.74438ZM5.00163 7.14034C6.51358 5.19161 9.54846 5.51842 10.6109 7.74438L12.4158 6.88292C10.7123 3.31361 5.84586 2.78956 3.42146 5.91435L5.00163 7.14034ZM5.13535 13.1794C3.55512 11.6949 3.36322 9.25207 4.69227 7.53907L3.1121 6.31307C1.15068 8.84113 1.43388 12.4463 3.766 14.6371L5.13535 13.1794ZM10.7186 21.1683C10.8238 21.2671 10.9548 21.3917 11.0802 21.4883C11.219 21.5952 11.4274 21.7302 11.7111 21.7859L12.0963 19.8233C12.1642 19.8367 12.2193 19.8588 12.258 19.8787C12.2928 19.8967 12.3087 19.9101 12.3006 19.9038C12.2919 19.8971 12.2723 19.881 12.2335 19.8459C12.1948 19.8109 12.1498 19.7687 12.088 19.7106L10.7186 21.1683ZM11.912 19.7106C11.8502 19.7687 11.8052 19.8109 11.7665 19.8459C11.7277 19.881 11.7081 19.8971 11.6994 19.9038C11.6913 19.9101 11.7072 19.8967 11.742 19.8787C11.7807 19.8588 11.8358 19.8367 11.9037 19.8233L12.2889 21.7859C12.5726 21.7302 12.781 21.5952 12.9198 21.4883C13.0452 21.3917 13.1762 21.2671 13.2814 21.1683L11.912 19.7106ZM11.7111 21.7859C11.9019 21.8233 12.0981 21.8233 12.2889 21.7859L11.9037 19.8233C11.9673 19.8109 12.0327 19.8109 12.0963 19.8233L11.7111 21.7859Z" fill="#3460B4"/>
</svg>
