<svg width="64" height="64" viewBox="0 0 64 64" fill="none" xmlns="http://www.w3.org/2000/svg">
<path d="M13.499 0.937744C11.1933 0.937744 9.32422 2.80687 9.32422 5.11249V58.8876C9.32422 61.1932 11.1933 63.0624 13.499 63.0624H50.499C52.8046 63.0624 54.6737 61.1932 54.6737 58.8876V13.8109C54.6737 12.9721 54.3405 12.1676 53.7475 11.5746L44.037 1.86412C43.4438 1.27099 42.6395 0.937869 41.8007 0.937869H13.499V0.937744Z" fill="#F5F5F5"/>
<path d="M53.748 11.5746L47.3112 5.13782L47.2883 15.9349C47.287 16.6127 47.836 17.1629 48.5137 17.1629C49.1905 17.1629 49.7391 17.7116 49.7391 18.3883V58.8875C49.7391 61.1931 47.87 63.0622 45.5645 63.0622H50.4996C52.8052 63.0622 54.6743 61.1931 54.6743 58.8875V18.0438V13.8108C54.6742 12.9721 54.3411 12.1676 53.748 11.5746Z" fill="#EAEAEA"/>
<path d="M54.4106 10.9115L44.7 1.201C43.9256 0.4265 42.8958 0 41.8006 0H13.4991C10.6801 0 8.38672 2.29338 8.38672 5.1125V58.8876C8.38672 61.7066 10.6801 64 13.4991 64H50.4991C53.3181 64 55.6116 61.7066 55.6116 58.8876V13.8109C55.6115 12.7156 55.185 11.686 54.4106 10.9115ZM52.41 11.5632H47.2853C45.5005 11.5632 44.0483 10.1111 44.0483 8.32625V3.20163L52.41 11.5632ZM53.7361 58.8876C53.7361 60.6725 52.284 62.1246 50.4991 62.1246H13.4991C11.7142 62.1246 10.2621 60.6725 10.2621 58.8876V5.1125C10.2621 3.32763 11.7142 1.8755 13.4991 1.8755H41.8006C41.9268 1.8755 42.0508 1.88813 42.1728 1.90863V8.32625C42.1728 11.1453 44.4662 13.4388 47.2852 13.4388H53.703C53.7235 13.5608 53.7361 13.6847 53.7361 13.811V58.8876Z" fill="#22262D"/>
<rect x="15" y="21" width="23" height="3" rx="1.5" fill="#3460B4"/>
<rect x="15" y="29" width="23" height="3" rx="1.5" fill="#3460B4"/>
<rect x="15" y="37" width="31" height="3" rx="1.5" fill="#3460B4"/>
</svg>
