<svg width="213" height="44" viewBox="0 0 213 44" fill="none" xmlns="http://www.w3.org/2000/svg">
<path d="M60.826 13.32C62.2633 13.32 63.5173 13.4227 64.588 13.628C65.6733 13.8187 66.5753 14.2367 67.294 14.882C68.0273 15.5273 68.394 16.466 68.394 17.698C68.394 19.9713 67.382 21.5113 65.358 22.318C63.3487 23.11 61.09 23.506 58.582 23.506C56.0887 23.506 53.7787 23.1027 51.652 22.296C49.5253 21.4747 48.462 19.92 48.462 17.632L54.072 17.61C54.072 18.622 54.5267 19.2673 55.436 19.546C56.36 19.81 57.438 19.942 58.67 19.942C59.8287 19.942 60.8187 19.7733 61.64 19.436C62.476 19.0987 62.894 18.5487 62.894 17.786V17.764C62.894 17.3387 62.6373 17.0233 62.124 16.818C61.6107 16.6127 61.0607 16.488 60.474 16.444C59.8873 16.4 59.1833 16.3707 58.362 16.356H56.712C55.128 16.356 53.7493 16.2607 52.576 16.07C51.4173 15.8647 50.442 15.4247 49.65 14.75C48.858 14.0753 48.462 13.078 48.462 11.758C48.462 9.47 49.4887 7.98133 51.542 7.292C53.61 6.588 55.9567 6.236 58.582 6.236C61.046 6.236 63.2973 6.63933 65.336 7.446C67.3747 8.25267 68.394 9.80733 68.394 12.11H62.872C62.872 11.3767 62.454 10.834 61.618 10.482C60.7967 10.1153 59.792 9.91 58.604 9.866C57.328 9.866 56.25 10.0127 55.37 10.306C54.49 10.5993 54.05 11.0613 54.05 11.692C54.05 12.352 54.4973 12.792 55.392 13.012C56.2867 13.232 57.2987 13.342 58.428 13.342L60.826 13.32ZM86.9013 16.664H76.7373V19.15L88.7493 19.062V23H71.3033V6.72H88.7493L88.7713 10.658H76.7373V12.814H86.9013V16.664ZM91.3525 14.882C91.3525 13.254 91.8292 11.7873 92.7825 10.482C93.7505 9.17667 95.0632 8.15733 96.7205 7.424C98.3925 6.676 100.241 6.302 102.265 6.302C104.083 6.302 105.726 6.59533 107.193 7.182C108.659 7.754 109.862 8.568 110.801 9.624C111.739 10.6653 112.363 11.89 112.671 13.298H107.039C106.819 12.7113 106.445 12.2053 105.917 11.78C105.403 11.34 104.824 11.01 104.179 10.79C103.533 10.57 102.903 10.46 102.287 10.46C101.421 10.46 100.578 10.636 99.7565 10.988C98.9499 11.34 98.2899 11.8533 97.7765 12.528C97.2779 13.188 97.0285 13.9727 97.0285 14.882C97.0285 15.7913 97.2779 16.5833 97.7765 17.258C98.2752 17.918 98.9205 18.424 99.7125 18.776C100.519 19.1133 101.377 19.282 102.287 19.282C103.299 19.282 104.23 19.04 105.081 18.556C105.946 18.072 106.584 17.3827 106.995 16.488H112.649C112.326 17.8813 111.695 19.106 110.757 20.162C109.818 21.2033 108.623 22.01 107.171 22.582C105.719 23.154 104.083 23.44 102.265 23.44C100.255 23.44 98.4145 23.066 96.7425 22.318C95.0852 21.57 93.7725 20.5433 92.8045 19.238C91.8365 17.9327 91.3525 16.4807 91.3525 14.882ZM129.957 6.72H135.501V15.058C135.501 16.642 135.061 18.072 134.181 19.348C133.301 20.624 132.113 21.6287 130.617 22.362C129.121 23.0807 127.486 23.44 125.711 23.44C123.804 23.44 122.074 23.0807 120.519 22.362C118.964 21.6433 117.732 20.6533 116.823 19.392C115.928 18.116 115.474 16.686 115.459 15.102V6.72H121.091V15.102C121.091 16.4367 121.546 17.4193 122.455 18.05C123.379 18.6807 124.472 18.996 125.733 18.996C126.393 18.996 127.046 18.8713 127.691 18.622C128.336 18.358 128.872 17.9327 129.297 17.346C129.737 16.7593 129.957 16.0113 129.957 15.102V6.72ZM151.812 22.978L147.302 17.72H143.936V22.978H138.744V6.698H151.042C152.406 6.698 153.608 6.92533 154.65 7.38C155.706 7.83467 156.52 8.47267 157.092 9.294C157.678 10.1007 157.972 11.0393 157.972 12.11V12.198C157.972 13.5913 157.561 14.7427 156.74 15.652C155.933 16.5613 154.811 17.17 153.374 17.478L158.104 22.978H151.812ZM152.868 12.242C152.868 11.67 152.743 11.252 152.494 10.988C152.259 10.724 151.951 10.5627 151.57 10.504C151.188 10.4453 150.631 10.416 149.898 10.416H149.106C148.02 10.4453 146.297 10.46 143.936 10.46V13.958H149.854H149.898C150.631 13.958 151.188 13.9287 151.57 13.87C151.951 13.8113 152.259 13.6647 152.494 13.43C152.743 13.1807 152.868 12.7847 152.868 12.242ZM166.429 23H160.995V6.72H166.429V23ZM169.445 11.12V6.72H188.673L169.445 11.12ZM188.673 6.72V11.142H181.809V23H176.397V11.142H169.445V6.72H188.673ZM206.576 6.72H212.186L204.398 16.158V23H198.568V16.18L190.802 6.72H196.412L201.362 12.77L206.576 6.72Z" fill="#22262D"/>
<path d="M50.616 33.12L50.088 31.86V39H48.96V30.6H50.568L52.884 35.46L55.176 30.6H56.76V39H55.632V31.848L55.092 33.12L53.424 36.66H52.296L50.616 33.12ZM60.1148 39.096C59.4908 39.096 59.0148 38.94 58.6868 38.628C58.3588 38.308 58.1948 37.872 58.1948 37.32C58.1948 37.016 58.2428 36.744 58.3388 36.504C58.4348 36.256 58.5868 36.048 58.7948 35.88C59.0108 35.712 59.2828 35.584 59.6108 35.496C59.9468 35.408 60.3548 35.364 60.8348 35.364H62.0348V34.92C62.0348 34.584 61.9348 34.324 61.7348 34.14C61.5428 33.956 61.2428 33.864 60.8348 33.864C60.4268 33.864 60.1308 33.94 59.9468 34.092C59.7708 34.244 59.6668 34.44 59.6348 34.68H58.4348C58.4668 34.168 58.6748 33.744 59.0588 33.408C59.4508 33.072 60.0428 32.904 60.8348 32.904C61.5868 32.904 62.1548 33.084 62.5388 33.444C62.9228 33.804 63.1148 34.296 63.1148 34.92V39H62.2748L62.1428 38.016C61.9268 38.36 61.6428 38.628 61.2908 38.82C60.9468 39.004 60.5548 39.096 60.1148 39.096ZM60.2348 38.136C60.4988 38.136 60.7388 38.092 60.9548 38.004C61.1788 37.916 61.3708 37.8 61.5308 37.656C61.6908 37.504 61.8148 37.328 61.9028 37.128C61.9908 36.928 62.0348 36.716 62.0348 36.492V36.276H60.8348C60.2828 36.276 59.8908 36.372 59.6588 36.564C59.4348 36.748 59.3228 36.992 59.3228 37.296C59.3228 37.552 59.4028 37.756 59.5628 37.908C59.7228 38.06 59.9468 38.136 60.2348 38.136ZM64.8492 33H68.8692V33.984H65.9292V39H64.8492V33ZM71.3883 39.096C70.7643 39.096 70.2883 38.94 69.9603 38.628C69.6323 38.308 69.4683 37.872 69.4683 37.32C69.4683 37.016 69.5163 36.744 69.6123 36.504C69.7083 36.256 69.8603 36.048 70.0683 35.88C70.2843 35.712 70.5563 35.584 70.8843 35.496C71.2203 35.408 71.6283 35.364 72.1083 35.364H73.3083V34.92C73.3083 34.584 73.2083 34.324 73.0083 34.14C72.8163 33.956 72.5163 33.864 72.1083 33.864C71.7003 33.864 71.4043 33.94 71.2203 34.092C71.0443 34.244 70.9403 34.44 70.9083 34.68H69.7083C69.7403 34.168 69.9483 33.744 70.3323 33.408C70.7243 33.072 71.3163 32.904 72.1083 32.904C72.8603 32.904 73.4283 33.084 73.8123 33.444C74.1963 33.804 74.3883 34.296 74.3883 34.92V39H73.5483L73.4163 38.016C73.2003 38.36 72.9163 38.628 72.5643 38.82C72.2203 39.004 71.8283 39.096 71.3883 39.096ZM71.5083 38.136C71.7723 38.136 72.0123 38.092 72.2283 38.004C72.4523 37.916 72.6443 37.8 72.8043 37.656C72.9643 37.504 73.0883 37.328 73.1763 37.128C73.2643 36.928 73.3083 36.716 73.3083 36.492V36.276H72.1083C71.5563 36.276 71.1643 36.372 70.9323 36.564C70.7083 36.748 70.5963 36.992 70.5963 37.296C70.5963 37.552 70.6763 37.756 70.8363 37.908C70.9963 38.06 71.2203 38.136 71.5083 38.136ZM78.1027 32.904C78.8547 32.904 79.4107 33.064 79.7707 33.384C80.1387 33.704 80.3227 34.116 80.3227 34.62C80.3227 34.908 80.2587 35.168 80.1307 35.4C80.0027 35.624 79.8107 35.804 79.5547 35.94C79.8827 36.084 80.1227 36.276 80.2747 36.516C80.4267 36.748 80.5027 37.016 80.5027 37.32C80.5027 37.84 80.3067 38.268 79.9147 38.604C79.5307 38.932 78.9267 39.096 78.1027 39.096C77.2707 39.096 76.6587 38.924 76.2667 38.58C75.8747 38.228 75.6467 37.748 75.5827 37.14H76.6867C76.7427 37.444 76.8747 37.68 77.0827 37.848C77.2907 38.008 77.6307 38.088 78.1027 38.088C78.5827 38.088 78.9187 38.012 79.1107 37.86C79.3027 37.7 79.3987 37.5 79.3987 37.26C79.3987 37.004 79.3027 36.804 79.1107 36.66C78.9187 36.508 78.5827 36.432 78.1027 36.432H77.4427V35.448H78.1027C78.5107 35.448 78.7987 35.38 78.9667 35.244C79.1347 35.108 79.2187 34.92 79.2187 34.68C79.2187 34.448 79.1347 34.264 78.9667 34.128C78.7987 33.984 78.5107 33.912 78.1027 33.912C77.6947 33.912 77.4027 33.988 77.2267 34.14C77.0507 34.284 76.9307 34.484 76.8667 34.74H75.7627C75.8267 34.18 76.0427 33.736 76.4107 33.408C76.7867 33.072 77.3507 32.904 78.1027 32.904ZM86.0269 34.284L85.3669 35.52L83.3389 39H81.9469V33H83.0269V37.716L83.6869 36.48L85.7149 33H87.1069V39H86.0269V34.284ZM92.9878 36.432H89.9878V39H88.9078V33H89.9878V35.448H92.9878V33H94.0678V39H92.9878V36.432ZM98.8688 33H101.149C101.957 33 102.537 33.152 102.889 33.456C103.249 33.76 103.429 34.164 103.429 34.668C103.429 34.916 103.369 35.144 103.249 35.352C103.129 35.56 102.941 35.736 102.685 35.88C103.021 36.016 103.269 36.208 103.429 36.456C103.589 36.696 103.669 36.964 103.669 37.26C103.669 37.804 103.489 38.232 103.129 38.544C102.777 38.848 102.197 39 101.389 39H98.8688V33ZM99.9488 36.408V38.016H101.389C101.821 38.016 102.121 37.948 102.289 37.812C102.457 37.668 102.541 37.464 102.541 37.2C102.541 36.944 102.457 36.748 102.289 36.612C102.121 36.476 101.821 36.408 101.389 36.408H99.9488ZM99.9488 33.984V35.472H101.149C101.589 35.472 101.889 35.408 102.049 35.28C102.217 35.144 102.301 34.96 102.301 34.728C102.301 34.496 102.217 34.316 102.049 34.188C101.889 34.052 101.589 33.984 101.149 33.984H99.9488ZM106.603 39.096C105.979 39.096 105.503 38.94 105.175 38.628C104.847 38.308 104.683 37.872 104.683 37.32C104.683 37.016 104.731 36.744 104.827 36.504C104.923 36.256 105.075 36.048 105.283 35.88C105.499 35.712 105.771 35.584 106.099 35.496C106.435 35.408 106.843 35.364 107.323 35.364H108.523V34.92C108.523 34.584 108.423 34.324 108.223 34.14C108.031 33.956 107.731 33.864 107.323 33.864C106.915 33.864 106.619 33.94 106.435 34.092C106.259 34.244 106.155 34.44 106.123 34.68H104.923C104.955 34.168 105.163 33.744 105.547 33.408C105.939 33.072 106.531 32.904 107.323 32.904C108.075 32.904 108.643 33.084 109.027 33.444C109.411 33.804 109.603 34.296 109.603 34.92V39H108.763L108.631 38.016C108.415 38.36 108.131 38.628 107.779 38.82C107.435 39.004 107.043 39.096 106.603 39.096ZM106.723 38.136C106.987 38.136 107.227 38.092 107.443 38.004C107.667 37.916 107.859 37.8 108.019 37.656C108.179 37.504 108.303 37.328 108.391 37.128C108.479 36.928 108.523 36.716 108.523 36.492V36.276H107.323C106.771 36.276 106.379 36.372 106.147 36.564C105.923 36.748 105.811 36.992 105.811 37.296C105.811 37.552 105.891 37.756 106.051 37.908C106.211 38.06 106.435 38.136 106.723 38.136ZM111.338 33H112.418V38.016H114.458V33H115.538V38.016H117.578V33H118.658V39H111.338V33ZM122.795 39.096C122.395 39.096 122.027 39.032 121.691 38.904C121.363 38.768 121.079 38.576 120.839 38.328C120.607 38.08 120.423 37.78 120.287 37.428C120.159 37.076 120.095 36.676 120.095 36.228V35.772C120.095 35.332 120.159 34.936 120.287 34.584C120.423 34.232 120.611 33.932 120.851 33.684C121.091 33.436 121.375 33.244 121.703 33.108C122.031 32.972 122.395 32.904 122.795 32.904C123.195 32.904 123.559 32.972 123.887 33.108C124.223 33.236 124.507 33.424 124.739 33.672C124.979 33.92 125.163 34.224 125.291 34.584C125.427 34.936 125.495 35.332 125.495 35.772V36.348H121.223C121.239 36.932 121.391 37.372 121.679 37.668C121.967 37.964 122.339 38.112 122.795 38.112C123.267 38.112 123.611 38.028 123.827 37.86C124.043 37.692 124.211 37.452 124.331 37.14H125.435C125.315 37.732 125.047 38.208 124.631 38.568C124.215 38.92 123.603 39.096 122.795 39.096ZM122.795 33.888C122.363 33.888 122.007 34.016 121.727 34.272C121.455 34.52 121.291 34.9 121.235 35.412H124.343C124.295 34.884 124.139 34.5 123.875 34.26C123.611 34.012 123.251 33.888 122.795 33.888ZM131.015 34.284L130.355 35.52L128.327 39H126.935V33H128.015V37.716L128.675 36.48L130.703 33H132.095V39H131.015V34.284ZM129.515 32.256C128.987 32.256 128.575 32.112 128.279 31.824C127.983 31.528 127.835 31.12 127.835 30.6H128.771C128.771 30.912 128.835 31.144 128.963 31.296C129.099 31.44 129.283 31.512 129.515 31.512C129.755 31.512 129.943 31.44 130.079 31.296C130.215 31.144 130.283 30.912 130.283 30.6H131.195C131.195 31.12 131.047 31.528 130.751 31.824C130.455 32.112 130.043 32.256 129.515 32.256ZM139.296 39.096C138.44 39.096 137.764 38.824 137.268 38.28C136.78 37.736 136.536 36.892 136.536 35.748V35.052C136.536 34.636 136.556 34.236 136.596 33.852C136.644 33.46 136.724 33.096 136.836 32.76C136.948 32.424 137.096 32.124 137.28 31.86C137.472 31.596 137.712 31.38 138 31.212C138.256 31.06 138.508 30.96 138.756 30.912C139.012 30.864 139.28 30.832 139.56 30.816C139.84 30.792 140.14 30.764 140.46 30.732C140.788 30.7 141.156 30.624 141.564 30.504V31.476C141.26 31.588 140.964 31.66 140.676 31.692C140.396 31.716 140.124 31.736 139.86 31.752C139.596 31.768 139.348 31.796 139.116 31.836C138.884 31.868 138.672 31.944 138.48 32.064C138.224 32.232 138.024 32.456 137.88 32.736C137.744 33.016 137.644 33.388 137.58 33.852C137.804 33.572 138.076 33.364 138.396 33.228C138.716 33.092 139.076 33.024 139.476 33.024C139.86 33.024 140.208 33.088 140.52 33.216C140.84 33.344 141.112 33.528 141.336 33.768C141.568 34.008 141.744 34.304 141.864 34.656C141.992 35 142.056 35.392 142.056 35.832V36.288C142.056 36.72 141.988 37.112 141.852 37.464C141.724 37.808 141.54 38.1 141.3 38.34C141.06 38.58 140.768 38.768 140.424 38.904C140.088 39.032 139.712 39.096 139.296 39.096ZM139.296 34.056C138.808 34.056 138.416 34.2 138.12 34.488C137.832 34.768 137.68 35.172 137.664 35.7V36.24C137.664 36.832 137.812 37.284 138.108 37.596C138.412 37.908 138.808 38.064 139.296 38.064C139.8 38.064 140.196 37.912 140.484 37.608C140.78 37.304 140.928 36.864 140.928 36.288V35.832C140.928 35.264 140.78 34.828 140.484 34.524C140.188 34.212 139.792 34.056 139.296 34.056ZM145.834 39.096C145.434 39.096 145.066 39.032 144.73 38.904C144.402 38.768 144.118 38.576 143.878 38.328C143.646 38.08 143.462 37.78 143.326 37.428C143.198 37.076 143.134 36.676 143.134 36.228V35.772C143.134 35.332 143.198 34.936 143.326 34.584C143.462 34.232 143.65 33.932 143.89 33.684C144.13 33.436 144.414 33.244 144.742 33.108C145.07 32.972 145.434 32.904 145.834 32.904C146.234 32.904 146.598 32.972 146.926 33.108C147.262 33.236 147.546 33.424 147.778 33.672C148.018 33.92 148.202 34.224 148.33 34.584C148.466 34.936 148.534 35.332 148.534 35.772V36.348H144.262C144.278 36.932 144.43 37.372 144.718 37.668C145.006 37.964 145.378 38.112 145.834 38.112C146.306 38.112 146.65 38.028 146.866 37.86C147.082 37.692 147.25 37.452 147.37 37.14H148.474C148.354 37.732 148.086 38.208 147.67 38.568C147.254 38.92 146.642 39.096 145.834 39.096ZM145.834 33.888C145.402 33.888 145.046 34.016 144.766 34.272C144.494 34.52 144.33 34.9 144.274 35.412H147.382C147.334 34.884 147.178 34.5 146.914 34.26C146.65 34.012 146.29 33.888 145.834 33.888ZM151.954 32.904C152.706 32.904 153.262 33.064 153.622 33.384C153.99 33.704 154.174 34.116 154.174 34.62C154.174 34.908 154.11 35.168 153.982 35.4C153.854 35.624 153.662 35.804 153.406 35.94C153.734 36.084 153.974 36.276 154.126 36.516C154.278 36.748 154.354 37.016 154.354 37.32C154.354 37.84 154.158 38.268 153.766 38.604C153.382 38.932 152.778 39.096 151.954 39.096C151.122 39.096 150.51 38.924 150.118 38.58C149.726 38.228 149.498 37.748 149.434 37.14H150.538C150.594 37.444 150.726 37.68 150.934 37.848C151.142 38.008 151.482 38.088 151.954 38.088C152.434 38.088 152.77 38.012 152.962 37.86C153.154 37.7 153.25 37.5 153.25 37.26C153.25 37.004 153.154 36.804 152.962 36.66C152.77 36.508 152.434 36.432 151.954 36.432H151.294V35.448H151.954C152.362 35.448 152.65 35.38 152.818 35.244C152.986 35.108 153.07 34.92 153.07 34.68C153.07 34.448 152.986 34.264 152.818 34.128C152.65 33.984 152.362 33.912 151.954 33.912C151.546 33.912 151.254 33.988 151.078 34.14C150.902 34.284 150.782 34.484 150.718 34.74H149.614C149.678 34.18 149.894 33.736 150.262 33.408C150.638 33.072 151.202 32.904 151.954 32.904ZM158.198 39.096C157.774 39.096 157.39 39.032 157.046 38.904C156.71 38.768 156.422 38.58 156.182 38.34C155.942 38.092 155.758 37.792 155.63 37.44C155.502 37.08 155.438 36.676 155.438 36.228V35.772C155.438 35.332 155.502 34.936 155.63 34.584C155.766 34.224 155.954 33.92 156.194 33.672C156.434 33.424 156.722 33.236 157.058 33.108C157.402 32.972 157.782 32.904 158.198 32.904C158.614 32.904 158.99 32.972 159.326 33.108C159.67 33.236 159.962 33.424 160.202 33.672C160.442 33.912 160.626 34.212 160.754 34.572C160.89 34.924 160.958 35.324 160.958 35.772V36.228C160.958 36.676 160.89 37.076 160.754 37.428C160.626 37.78 160.442 38.08 160.202 38.328C159.962 38.576 159.67 38.768 159.326 38.904C158.99 39.032 158.614 39.096 158.198 39.096ZM158.198 38.064C158.702 38.064 159.098 37.912 159.386 37.608C159.682 37.296 159.83 36.836 159.83 36.228V35.772C159.83 35.172 159.682 34.716 159.386 34.404C159.098 34.092 158.702 33.936 158.198 33.936C157.694 33.936 157.294 34.092 156.998 34.404C156.71 34.708 156.566 35.164 156.566 35.772V36.228C156.566 36.828 156.71 37.284 156.998 37.596C157.294 37.908 157.694 38.064 158.198 38.064ZM166.236 33.984H163.476V39H162.396V33H167.316V39H166.236V33.984ZM170.611 39.096C169.987 39.096 169.511 38.94 169.183 38.628C168.855 38.308 168.691 37.872 168.691 37.32C168.691 37.016 168.739 36.744 168.835 36.504C168.931 36.256 169.083 36.048 169.291 35.88C169.507 35.712 169.779 35.584 170.107 35.496C170.443 35.408 170.851 35.364 171.331 35.364H172.531V34.92C172.531 34.584 172.431 34.324 172.231 34.14C172.039 33.956 171.739 33.864 171.331 33.864C170.923 33.864 170.627 33.94 170.443 34.092C170.267 34.244 170.163 34.44 170.131 34.68H168.931C168.963 34.168 169.171 33.744 169.555 33.408C169.947 33.072 170.539 32.904 171.331 32.904C172.083 32.904 172.651 33.084 173.035 33.444C173.419 33.804 173.611 34.296 173.611 34.92V39H172.771L172.639 38.016C172.423 38.36 172.139 38.628 171.787 38.82C171.443 39.004 171.051 39.096 170.611 39.096ZM170.731 38.136C170.995 38.136 171.235 38.092 171.451 38.004C171.675 37.916 171.867 37.8 172.027 37.656C172.187 37.504 172.311 37.328 172.399 37.128C172.487 36.928 172.531 36.716 172.531 36.492V36.276H171.331C170.779 36.276 170.387 36.372 170.155 36.564C169.931 36.748 169.819 36.992 169.819 37.296C169.819 37.552 169.899 37.756 170.059 37.908C170.219 38.06 170.443 38.136 170.731 38.136ZM177.685 39.096C176.853 39.096 176.193 38.848 175.705 38.352C175.225 37.856 174.985 37.148 174.985 36.228V35.772C174.985 35.316 175.049 34.912 175.177 34.56C175.305 34.208 175.485 33.908 175.717 33.66C175.949 33.412 176.233 33.224 176.569 33.096C176.905 32.968 177.277 32.904 177.685 32.904C178.037 32.904 178.349 32.952 178.621 33.048C178.901 33.144 179.141 33.276 179.341 33.444C179.549 33.604 179.717 33.796 179.845 34.02C179.981 34.244 180.081 34.484 180.145 34.74H178.993C178.905 34.532 178.753 34.348 178.537 34.188C178.329 34.02 178.025 33.936 177.625 33.936C177.169 33.936 176.801 34.088 176.521 34.392C176.249 34.696 176.113 35.156 176.113 35.772V36.228C176.113 36.836 176.253 37.296 176.533 37.608C176.813 37.912 177.177 38.064 177.625 38.064C178.033 38.064 178.341 37.98 178.549 37.812C178.757 37.644 178.905 37.42 178.993 37.14H180.145C180.025 37.716 179.761 38.188 179.353 38.556C178.945 38.916 178.389 39.096 177.685 39.096ZM185.484 36.432H182.484V39H181.404V33H182.484V35.448H185.484V33H186.564V39H185.484V36.432ZM190.765 39.096C190.341 39.096 189.957 39.032 189.613 38.904C189.277 38.768 188.989 38.58 188.749 38.34C188.509 38.092 188.325 37.792 188.197 37.44C188.069 37.08 188.005 36.676 188.005 36.228V35.772C188.005 35.332 188.069 34.936 188.197 34.584C188.333 34.224 188.521 33.92 188.761 33.672C189.001 33.424 189.289 33.236 189.625 33.108C189.969 32.972 190.349 32.904 190.765 32.904C191.181 32.904 191.557 32.972 191.893 33.108C192.237 33.236 192.529 33.424 192.769 33.672C193.009 33.912 193.193 34.212 193.321 34.572C193.457 34.924 193.525 35.324 193.525 35.772V36.228C193.525 36.676 193.457 37.076 193.321 37.428C193.193 37.78 193.009 38.08 192.769 38.328C192.529 38.576 192.237 38.768 191.893 38.904C191.557 39.032 191.181 39.096 190.765 39.096ZM190.765 38.064C191.269 38.064 191.665 37.912 191.953 37.608C192.249 37.296 192.397 36.836 192.397 36.228V35.772C192.397 35.172 192.249 34.716 191.953 34.404C191.665 34.092 191.269 33.936 190.765 33.936C190.261 33.936 189.861 34.092 189.565 34.404C189.277 34.708 189.133 35.164 189.133 35.772V36.228C189.133 36.828 189.277 37.284 189.565 37.596C189.861 37.908 190.261 38.064 190.765 38.064ZM197.303 39.096C196.471 39.096 195.811 38.848 195.323 38.352C194.843 37.856 194.603 37.148 194.603 36.228V35.772C194.603 35.316 194.667 34.912 194.795 34.56C194.923 34.208 195.103 33.908 195.335 33.66C195.567 33.412 195.851 33.224 196.187 33.096C196.523 32.968 196.895 32.904 197.303 32.904C197.655 32.904 197.967 32.952 198.239 33.048C198.519 33.144 198.759 33.276 198.959 33.444C199.167 33.604 199.335 33.796 199.463 34.02C199.599 34.244 199.699 34.484 199.763 34.74H198.611C198.523 34.532 198.371 34.348 198.155 34.188C197.947 34.02 197.643 33.936 197.243 33.936C196.787 33.936 196.419 34.088 196.139 34.392C195.867 34.696 195.731 35.156 195.731 35.772V36.228C195.731 36.836 195.871 37.296 196.151 37.608C196.431 37.912 196.795 38.064 197.243 38.064C197.651 38.064 197.959 37.98 198.167 37.812C198.375 37.644 198.523 37.42 198.611 37.14H199.763C199.643 37.716 199.379 38.188 198.971 38.556C198.563 38.916 198.007 39.096 197.303 39.096ZM200.127 33H205.047V33.984H203.127V39H202.047V33.984H200.127V33ZM210.269 34.284L209.609 35.52L207.581 39H206.189V33H207.269V37.716L207.929 36.48L209.957 33H211.349V39H210.269V34.284Z" fill="#22262D"/>
<g clip-path="url(#clip0_406_6863)">
<path d="M36.6081 10.12L36.5201 9.592L35.9921 9.416C35.1121 9.108 34.2321 8.8 33.3081 8.448V10.472C33.8361 10.648 34.3201 10.868 34.8481 11.044C35.1121 12.98 35.7721 19.36 33.3081 26.004V30.36C38.4561 20.856 36.6081 10.296 36.6081 10.12Z" fill="#3460B4"/>
<path d="M22.572 38.72C20.724 39.776 18.656 40.744 16.28 41.492V3.08C17.644 3.74 19.888 4.84 22.572 6.028C23.892 6.6 25.3 7.26 26.752 7.876C27.104 7.348 27.412 6.776 27.676 6.204C25.872 5.456 24.156 4.664 22.572 3.96V0L21.208 0.704C21.164 0.704 20.152 1.232 18.48 2.024C17.38 2.552 15.972 3.212 14.388 3.96C10.428 5.764 5.32399 7.964 1.01199 9.46L0.439991 9.592L0.351991 10.12C0.307991 10.34 -3.34401 31.372 14.388 40.876V44L15.62 43.648C16.632 43.384 17.6 43.032 18.524 42.724C20.02 42.196 21.384 41.58 22.616 40.876C25.124 39.556 27.148 37.972 28.864 36.256H26.092C24.992 37.136 23.848 37.972 22.572 38.72Z" fill="#3460B4"/>
<path d="M25.7839 10.032C24.3759 11.396 23.0119 12.364 21.6919 12.892V18.128C24.0239 17.204 26.0479 15.708 27.8519 13.728V35.552H32.6039V5.28003H28.7759C28.2039 7.08403 27.2359 8.66803 25.7839 10.032Z" fill="#3460B4"/>
</g>
<defs>
<clipPath id="clip0_406_6863">
<rect width="36.916" height="44" fill="white"/>
</clipPath>
</defs>
</svg>
