<svg width="16" height="16" viewBox="0 0 16 16" fill="none" xmlns="http://www.w3.org/2000/svg">
<path d="M7.5 0C3.85088 0 1 3.00752 1 6.85714C1 8.42105 1.57018 9.98496 2.59649 11.188C2.71053 11.3083 5.44737 14.5564 6.35965 15.5188C6.70175 15.8797 7.15789 16 7.5 16C7.95614 16 8.29825 15.8797 8.64035 15.5188C9.66667 14.4361 12.2895 11.4286 12.4035 11.188C13.4298 9.98496 14 8.42105 14 6.73684C13.886 3.00752 11.0351 0 7.5 0ZM7.5 8.78195C6.35965 8.78195 5.5614 7.93985 5.5614 6.85714C5.5614 5.65413 6.35965 4.81203 7.5 4.81203C8.64035 4.81203 9.4386 5.65413 9.4386 6.85714C9.32456 7.93985 8.52632 8.78195 7.5 8.78195Z" fill="#3460B4"/>
</svg>
