<svg width="64" height="64" viewBox="0 0 64 64" fill="none" xmlns="http://www.w3.org/2000/svg">
<path d="M62.9335 29.8667V57.6C62.9335 61.12 60.0535 64 56.5335 64H11.7335C8.2135 64 5.3335 61.12 5.3335 57.6V52.2667H18.1335C20.4802 52.2667 22.4002 50.3467 22.4002 48V39.4667C22.4002 37.12 20.4802 35.2 18.1335 35.2H5.3335V29.8667C5.3335 26.3467 8.2135 23.4667 11.7335 23.4667H56.5335C60.0535 23.4667 62.9335 26.3467 62.9335 29.8667Z" fill="#3460B4"/>
<path d="M18.1336 52.2667H5.33356C2.98689 52.2667 1.06689 50.3467 1.06689 48.0001V39.4667C1.06689 37.1201 2.98689 35.2001 5.33356 35.2001H18.1336C20.4802 35.2001 22.4002 37.1201 22.4002 39.4667V48.0001C22.4002 50.3467 20.4802 52.2667 18.1336 52.2667Z" stroke="#22262D" stroke-width="2" stroke-miterlimit="10" stroke-linecap="round" stroke-linejoin="round"/>
<path d="M13.8667 45.8668C15.0449 45.8668 16.0001 44.9116 16.0001 43.7334C16.0001 42.5552 15.0449 41.6001 13.8667 41.6001C12.6885 41.6001 11.7334 42.5552 11.7334 43.7334C11.7334 44.9116 12.6885 45.8668 13.8667 45.8668Z" stroke="#22262D" stroke-width="2" stroke-miterlimit="10" stroke-linecap="round" stroke-linejoin="round"/>
<path d="M22.0269 5.33341C22.1069 5.01341 22.1869 4.69341 22.2669 4.40007C22.3735 4.24007 22.6669 3.70674 23.3335 3.41341C23.7869 3.20007 24.2935 3.14674 24.8002 3.25341L37.1202 5.97341" stroke="#22262D" stroke-width="2" stroke-miterlimit="10" stroke-linecap="round" stroke-linejoin="round"/>
<path d="M17.7336 16.0001C16.8802 17.5735 15.9736 18.9868 15.0669 20.2668" stroke="#22262D" stroke-width="2" stroke-miterlimit="10" stroke-linecap="round" stroke-linejoin="round"/>
<path d="M20.6668 9.6001C20.4001 10.2934 20.1335 10.9868 19.8135 11.7334" stroke="#22262D" stroke-width="2" stroke-miterlimit="10" stroke-linecap="round" stroke-linejoin="round"/>
<path d="M58.3202 20.4267C58.8002 19.7067 59.2802 18.96 59.7335 18.1334C61.1202 15.7067 62.0268 13.44 62.6668 11.5467C62.7202 11.44 63.1468 10.64 62.8268 9.73338C62.6135 9.14671 62.1602 8.66671 61.5202 8.42671L41.5202 1.20004C40.5602 0.853376 39.4935 1.22671 38.9335 2.08004C38.4002 3.30671 37.8135 4.61338 37.1468 5.97338C35.7602 8.77338 34.0802 11.7867 32.0002 14.9334C30.7202 16.8534 29.4402 18.64 28.1602 20.2667" stroke="#22262D" stroke-width="2" stroke-miterlimit="10" stroke-linecap="round" stroke-linejoin="round"/>
<path d="M51.4671 20.2934L51.4937 20.2668C52.9871 18.6401 54.3204 16.8801 55.4404 14.9868C55.8404 14.3201 56.1871 13.6268 56.5337 12.9334L43.6804 8.53345C41.9204 11.9734 39.9204 15.3068 37.7071 18.4534C37.2804 19.0668 36.8537 19.6534 36.4004 20.2668" stroke="#22262D" stroke-width="2" stroke-miterlimit="10" stroke-linecap="round" stroke-linejoin="round"/>
<path d="M43.7334 56.5334H50.1334" stroke="#22262D" stroke-width="2" stroke-miterlimit="10" stroke-linecap="round" stroke-linejoin="round"/>
<path d="M54.3999 56.5334H56.5332" stroke="#22262D" stroke-width="2" stroke-miterlimit="10" stroke-linecap="round" stroke-linejoin="round"/>
</svg>
