<svg width="33" height="42" viewBox="0 0 33 42" fill="none" xmlns="http://www.w3.org/2000/svg">
<path d="M16.4928 0H16.4764C7.62173 0 0.417969 7.20891 0.417969 16.0699C0.417969 19.5128 1.55181 22.9279 3.61048 25.6862L15.7863 42H17.1829L29.3588 25.6863C31.4174 22.9279 32.5513 19.5128 32.5513 16.0699C32.5513 7.20891 25.3475 0 16.4928 0ZM16.4846 20.5898C13.7726 20.5898 11.5663 18.3819 11.5663 15.668C11.5663 12.954 13.7726 10.7461 16.4846 10.7461C19.1966 10.7461 21.403 12.954 21.403 15.668C21.403 18.3819 19.1966 20.5898 16.4846 20.5898Z" fill="#3460B4"/>
</svg>
