<svg width="24" height="24" viewBox="0 0 24 24" fill="none" xmlns="http://www.w3.org/2000/svg">
<path fill-rule="evenodd" clip-rule="evenodd" d="M12.0001 17.5C9.62728 17.5 7.37887 18.0271 5.84014 18.5021C4.95936 18.774 4.31213 19.5717 4.15373 20.5899L3.98826 21.6537C3.90337 22.1994 3.39216 22.573 2.84644 22.4881C2.30071 22.4032 1.92714 21.892 2.01203 21.3463L2.1775 20.2825C2.43626 18.6191 3.53776 17.1197 5.25022 16.5911C6.89449 16.0835 9.35405 15.5 12.0001 15.5C14.6462 15.5 17.1058 16.0835 18.7501 16.5911C20.4625 17.1197 21.564 18.6191 21.8228 20.2825L21.9883 21.3463C22.0731 21.892 21.6996 22.4032 21.1539 22.4881C20.6081 22.573 20.0969 22.1994 20.012 21.6537L19.8466 20.5899C19.6882 19.5717 19.0409 18.774 18.1601 18.5021C16.6214 18.0271 14.373 17.5 12.0001 17.5Z" fill="#3460B4"/>
<path fill-rule="evenodd" clip-rule="evenodd" d="M12 3C9.79086 3 8 4.79086 8 7C8 9.20914 9.79086 11 12 11C14.2091 11 16 9.20914 16 7C16 4.79086 14.2091 3 12 3ZM6 7C6 3.68629 8.68629 1 12 1C15.3137 1 18 3.68629 18 7C18 10.3137 15.3137 13 12 13C8.68629 13 6 10.3137 6 7Z" fill="#3460B4"/>
</svg>
