<svg width="64" height="64" viewBox="0 0 64 64" fill="none" xmlns="http://www.w3.org/2000/svg">
<path d="M32.0001 5.33337C20.8001 5.33337 11.7334 14.4 11.7334 25.6C11.7334 36.8 20.8001 45.8667 32.0001 45.8667C43.2001 45.8667 52.2667 36.8 52.2667 25.6C52.2667 14.4 43.2001 5.33337 32.0001 5.33337ZM40.2934 24.48L38.1867 27.28C38.0001 27.5467 37.9201 27.8667 37.9734 28.1867L38.7467 32.7734C38.8801 33.6534 38.0534 34.3734 37.2001 34.08L32.4001 32.4267C32.1334 32.3467 31.8667 32.3467 31.6267 32.4267L26.8267 34.08C25.9734 34.3734 25.1467 33.6534 25.2801 32.7734L26.0534 28.1867C26.1067 27.8667 26.0267 27.5467 25.8401 27.28L23.7334 24.48C23.2001 23.7867 23.6001 22.8 24.4534 22.6134L28.0001 21.92C28.3201 21.8667 28.6134 21.6534 28.7734 21.3867L31.0134 17.6534C31.4667 16.9067 32.5867 16.9067 33.0401 17.6534L35.2801 21.3867C35.4401 21.6534 35.7334 21.8667 36.0534 21.92L39.6001 22.6134C40.4267 22.8 40.8267 23.7867 40.2934 24.48Z" fill="#3460B4"/>
<path d="M18.8001 4.93332C22.6135 2.47998 27.1468 1.06665 32.0001 1.06665C45.5201 1.06665 56.5335 12.08 56.5335 25.6C56.5335 39.12 45.5201 50.1333 32.0001 50.1333C18.4801 50.1333 7.4668 39.12 7.4668 25.6C7.4668 20.7467 8.88013 16.2133 11.3335 12.4" stroke="#22262D" stroke-width="2" stroke-miterlimit="10" stroke-linecap="round" stroke-linejoin="round"/>
<path d="M15.2 7.73328C14.8266 8.07994 14.48 8.42661 14.1333 8.79994" stroke="#22262D" stroke-width="2" stroke-miterlimit="10" stroke-linecap="round" stroke-linejoin="round"/>
<path d="M9.59999 43.6533L1.38666 51.6533C0.693323 52.3467 1.17332 53.3333 2.15999 53.3333H8.53332C9.70666 53.3333 10.6667 54.2933 10.6667 55.4667V61.84C10.6667 62.8267 11.6533 63.3067 12.3467 62.6133L22.1067 52.64" stroke="#22262D" stroke-width="2" stroke-miterlimit="10" stroke-linecap="round" stroke-linejoin="round"/>
<path d="M54.4002 43.6533L62.6136 51.6533C63.3069 52.3467 62.8269 53.3333 61.8402 53.3333H55.4669C54.2936 53.3333 53.3336 54.2933 53.3336 55.4667V61.84C53.3336 62.8267 52.3469 63.3067 51.6536 62.6133L41.8936 52.64" stroke="#22262D" stroke-width="2" stroke-miterlimit="10" stroke-linecap="round" stroke-linejoin="round"/>
<path d="M33.0133 17.6266L35.2533 21.3599C35.4133 21.6533 35.7067 21.8399 36.0267 21.8933L39.5733 22.5866C40.4267 22.7466 40.8 23.7599 40.2933 24.4266L38.1867 27.2266C38 27.4933 37.92 27.8133 37.9733 28.1333L38.7467 32.7199C38.9067 33.5999 38.0533 34.3199 37.2 34.0266L32.4 32.3733C32.16 32.2933 31.8667 32.2933 31.6267 32.3733L26.8267 34.0266C25.9733 34.3199 25.1467 33.5999 25.28 32.7199L26.0533 28.1333C26.1067 27.8133 26.0267 27.4933 25.84 27.2266L23.7333 24.4266C23.2267 23.7333 23.6 22.7466 24.4533 22.5866L28 21.8666C28.32 21.8133 28.6133 21.5999 28.7733 21.3333L31.04 17.5999C31.44 16.8799 32.56 16.8799 33.0133 17.6266Z" stroke="#22262D" stroke-width="2" stroke-miterlimit="10" stroke-linecap="round" stroke-linejoin="round"/>
</svg>
